<svg id="visual" viewBox="0 0 1920 1080" width="1920" height="1080" xmlns="http://www.w3.org/2000/svg" xmlns:xlink="http://www.w3.org/1999/xlink" version="1.1"><rect x="0" y="0" width="1920" height="1080" fill="#001220"></rect><defs><linearGradient id="grad1_0" x1="43.8%" y1="100%" x2="100%" y2="0%"><stop offset="14.444444444444446%" stop-color="#ADD8E6" stop-opacity="1"></stop><stop offset="85.55555555555554%" stop-color="#ADD8E6" stop-opacity="1"></stop></linearGradient></defs><defs><linearGradient id="grad1_1" x1="43.8%" y1="100%" x2="100%" y2="0%"><stop offset="14.444444444444446%" stop-color="#ADD8E6" stop-opacity="1"></stop><stop offset="85.55555555555554%" stop-color="#3ABFF8" stop-opacity="1"></stop></linearGradient></defs><defs><linearGradient id="grad1_2" x1="43.8%" y1="100%" x2="100%" y2="0%"><stop offset="14.444444444444446%" stop-color="#2680C5" stop-opacity="1"></stop><stop offset="85.55555555555554%" stop-color="#3ABFF8" stop-opacity="1"></stop></linearGradient></defs><defs><linearGradient id="grad1_3" x1="43.8%" y1="100%" x2="100%" y2="0%"><stop offset="14.444444444444446%" stop-color="#2680C5" stop-opacity="1"></stop><stop offset="85.55555555555554%" stop-color="#1C4E82" stop-opacity="1"></stop></linearGradient></defs><defs><linearGradient id="grad1_4" x1="43.8%" y1="100%" x2="100%" y2="0%"><stop offset="14.444444444444446%" stop-color="#0F3858" stop-opacity="1"></stop><stop offset="85.55555555555554%" stop-color="#1C4E82" stop-opacity="1"></stop></linearGradient></defs><defs><linearGradient id="grad1_5" x1="43.8%" y1="100%" x2="100%" y2="0%"><stop offset="14.444444444444446%" stop-color="#0F3858" stop-opacity="1"></stop><stop offset="85.55555555555554%" stop-color="#001220" stop-opacity="1"></stop></linearGradient></defs><defs><linearGradient id="grad2_0" x1="0%" y1="100%" x2="56.3%" y2="0%"><stop offset="14.444444444444446%" stop-color="#ADD8E6" stop-opacity="1"></stop><stop offset="85.55555555555554%" stop-color="#ADD8E6" stop-opacity="1"></stop></linearGradient></defs><defs><linearGradient id="grad2_1" x1="0%" y1="100%" x2="56.3%" y2="0%"><stop offset="14.444444444444446%" stop-color="#3ABFF8" stop-opacity="1"></stop><stop offset="85.55555555555554%" stop-color="#ADD8E6" stop-opacity="1"></stop></linearGradient></defs><defs><linearGradient id="grad2_2" x1="0%" y1="100%" x2="56.3%" y2="0%"><stop offset="14.444444444444446%" stop-color="#3ABFF8" stop-opacity="1"></stop><stop offset="85.55555555555554%" stop-color="#2680C5" stop-opacity="1"></stop></linearGradient></defs><defs><linearGradient id="grad2_3" x1="0%" y1="100%" x2="56.3%" y2="0%"><stop offset="14.444444444444446%" stop-color="#1C4E82" stop-opacity="1"></stop><stop offset="85.55555555555554%" stop-color="#2680C5" stop-opacity="1"></stop></linearGradient></defs><defs><linearGradient id="grad2_4" x1="0%" y1="100%" x2="56.3%" y2="0%"><stop offset="14.444444444444446%" stop-color="#1C4E82" stop-opacity="1"></stop><stop offset="85.55555555555554%" stop-color="#0F3858" stop-opacity="1"></stop></linearGradient></defs><defs><linearGradient id="grad2_5" x1="0%" y1="100%" x2="56.3%" y2="0%"><stop offset="14.444444444444446%" stop-color="#001220" stop-opacity="1"></stop><stop offset="85.55555555555554%" stop-color="#0F3858" stop-opacity="1"></stop></linearGradient></defs><g transform="translate(1920, 1080)"><path d="M-810 0C-784.4 -103.4 -758.7 -206.8 -714.2 -295.8C-669.6 -384.8 -606.1 -459.4 -538.8 -538.8C-471.5 -618.2 -400.4 -702.3 -310 -748.3C-219.5 -794.3 -109.8 -802.2 0 -810L0 0Z" fill="#0E1E2A"></path><path d="M-675 0C-653.6 -86.2 -632.3 -172.3 -595.1 -246.5C-558 -320.7 -505.1 -382.9 -449 -449C-392.9 -515.2 -333.7 -585.3 -258.3 -623.6C-182.9 -661.9 -91.5 -668.5 0 -675L0 0Z" fill="#0F3858"></path><path d="M-540 0C-522.9 -68.9 -505.8 -137.9 -476.1 -197.2C-446.4 -256.5 -404.1 -306.3 -359.2 -359.2C-314.3 -412.1 -266.9 -468.2 -206.6 -498.9C-146.4 -529.6 -73.2 -534.8 0 -540L0 0Z" fill="#1C4E82"></path><path d="M-405 0C-392.2 -51.7 -379.4 -103.4 -357.1 -147.9C-334.8 -192.4 -303.1 -229.7 -269.4 -269.4C-235.8 -309.1 -200.2 -351.2 -155 -374.2C-109.8 -397.2 -54.9 -401.1 0 -405L0 0Z" fill="#2680C5"></path><path d="M-270 0C-261.5 -34.5 -252.9 -68.9 -238.1 -98.6C-223.2 -128.3 -202 -153.1 -179.6 -179.6C-157.2 -206.1 -133.5 -234.1 -103.3 -249.4C-73.2 -264.8 -36.6 -267.4 0 -270L0 0Z" fill="#3ABFF8"></path><path d="M-135 0C-130.7 -17.2 -126.5 -34.5 -119 -49.3C-111.6 -64.1 -101 -76.6 -89.8 -89.8C-78.6 -103 -66.7 -117.1 -51.7 -124.7C-36.6 -132.4 -18.3 -133.7 0 -135L0 0Z" fill="#ADD8E6"></path></g><g transform="translate(0, 0)"><path d="M810 0C768.7 93.2 727.4 186.5 694.8 287.8C662.1 389.1 638.2 498.5 572.8 572.8C507.3 647 400.5 686 298.1 719.7C195.7 753.4 97.9 781.7 0 810L0 0Z" fill="#0E1E2A"></path><path d="M675 0C640.6 77.7 606.2 155.4 579 239.8C551.8 324.3 531.8 415.4 477.3 477.3C422.8 539.2 333.7 571.7 248.4 599.8C163.1 627.8 81.6 651.4 0 675L0 0Z" fill="#0F3858"></path><path d="M540 0C512.5 62.2 484.9 124.3 463.2 191.9C441.4 259.4 425.4 332.4 381.8 381.8C338.2 431.3 267 457.4 198.7 479.8C130.5 502.3 65.2 521.1 0 540L0 0Z" fill="#1C4E82"></path><path d="M405 0C384.3 46.6 363.7 93.2 347.4 143.9C331.1 194.6 319.1 249.3 286.4 286.4C253.7 323.5 200.2 343 149.1 359.9C97.9 376.7 48.9 390.8 0 405L0 0Z" fill="#2680C5"></path><path d="M270 0C256.2 31.1 242.5 62.2 231.6 95.9C220.7 129.7 212.7 166.2 190.9 190.9C169.1 215.7 133.5 228.7 99.4 239.9C65.2 251.1 32.6 260.6 0 270L0 0Z" fill="#3ABFF8"></path><path d="M135 0C128.1 15.5 121.2 31.1 115.8 48C110.4 64.9 106.4 83.1 95.5 95.5C84.6 107.8 66.7 114.3 49.7 120C32.6 125.6 16.3 130.3 0 135L0 0Z" fill="#ADD8E6"></path></g></svg>