<svg id="visual" viewBox="0 0 540 960" width="540" height="960" xmlns="http://www.w3.org/2000/svg" xmlns:xlink="http://www.w3.org/1999/xlink" version="1.1"><rect x="0" y="0" width="540" height="960" fill="#001220"></rect><defs><linearGradient id="grad1_0" x1="0%" y1="100%" x2="100%" y2="0%"><stop offset="30%" stop-color="#ADD8E6" stop-opacity="1"></stop><stop offset="70%" stop-color="#ADD8E6" stop-opacity="1"></stop></linearGradient></defs><defs><linearGradient id="grad1_1" x1="0%" y1="100%" x2="100%" y2="0%"><stop offset="30%" stop-color="#ADD8E6" stop-opacity="1"></stop><stop offset="70%" stop-color="#3ABFF8" stop-opacity="1"></stop></linearGradient></defs><defs><linearGradient id="grad1_2" x1="0%" y1="100%" x2="100%" y2="0%"><stop offset="30%" stop-color="#2680C5" stop-opacity="1"></stop><stop offset="70%" stop-color="#3ABFF8" stop-opacity="1"></stop></linearGradient></defs><defs><linearGradient id="grad1_3" x1="0%" y1="100%" x2="100%" y2="0%"><stop offset="30%" stop-color="#2680C5" stop-opacity="1"></stop><stop offset="70%" stop-color="#1C4E82" stop-opacity="1"></stop></linearGradient></defs><defs><linearGradient id="grad1_4" x1="0%" y1="100%" x2="100%" y2="0%"><stop offset="30%" stop-color="#0F3858" stop-opacity="1"></stop><stop offset="70%" stop-color="#1C4E82" stop-opacity="1"></stop></linearGradient></defs><defs><linearGradient id="grad1_5" x1="0%" y1="100%" x2="100%" y2="0%"><stop offset="30%" stop-color="#0F3858" stop-opacity="1"></stop><stop offset="70%" stop-color="#001220" stop-opacity="1"></stop></linearGradient></defs><defs><linearGradient id="grad2_0" x1="0%" y1="100%" x2="100%" y2="0%"><stop offset="30%" stop-color="#ADD8E6" stop-opacity="1"></stop><stop offset="70%" stop-color="#ADD8E6" stop-opacity="1"></stop></linearGradient></defs><defs><linearGradient id="grad2_1" x1="0%" y1="100%" x2="100%" y2="0%"><stop offset="30%" stop-color="#3ABFF8" stop-opacity="1"></stop><stop offset="70%" stop-color="#ADD8E6" stop-opacity="1"></stop></linearGradient></defs><defs><linearGradient id="grad2_2" x1="0%" y1="100%" x2="100%" y2="0%"><stop offset="30%" stop-color="#3ABFF8" stop-opacity="1"></stop><stop offset="70%" stop-color="#2680C5" stop-opacity="1"></stop></linearGradient></defs><defs><linearGradient id="grad2_3" x1="0%" y1="100%" x2="100%" y2="0%"><stop offset="30%" stop-color="#1C4E82" stop-opacity="1"></stop><stop offset="70%" stop-color="#2680C5" stop-opacity="1"></stop></linearGradient></defs><defs><linearGradient id="grad2_4" x1="0%" y1="100%" x2="100%" y2="0%"><stop offset="30%" stop-color="#1C4E82" stop-opacity="1"></stop><stop offset="70%" stop-color="#0F3858" stop-opacity="1"></stop></linearGradient></defs><defs><linearGradient id="grad2_5" x1="0%" y1="100%" x2="100%" y2="0%"><stop offset="30%" stop-color="#001220" stop-opacity="1"></stop><stop offset="70%" stop-color="#0F3858" stop-opacity="1"></stop></linearGradient></defs><g transform="translate(540, 960)"><path d="M-405 0C-379.2 -44.1 -353.4 -88.2 -338.1 -140.1C-322.9 -192 -318.2 -251.7 -286.4 -286.4C-254.6 -321.1 -195.7 -330.8 -143.5 -346.5C-91.3 -362.1 -45.6 -383.5 0 -405L0 0Z" fill="#0E1E2A"></path><path d="M-337.5 0C-316 -36.7 -294.5 -73.5 -281.8 -116.7C-269.1 -160 -265.1 -209.7 -238.6 -238.6C-212.2 -267.6 -163.1 -275.7 -119.6 -288.7C-76.1 -301.7 -38 -319.6 0 -337.5L0 0Z" fill="#0F3858"></path><path d="M-270 0C-252.8 -29.4 -235.6 -58.8 -225.4 -93.4C-215.3 -128 -212.1 -167.8 -190.9 -190.9C-169.7 -214.1 -130.5 -220.6 -95.7 -231C-60.8 -241.4 -30.4 -255.7 0 -270L0 0Z" fill="#1C4E82"></path><path d="M-202.5 0C-189.6 -22 -176.7 -44.1 -169.1 -70C-161.4 -96 -159.1 -125.8 -143.2 -143.2C-127.3 -160.6 -97.9 -165.4 -71.8 -173.2C-45.6 -181 -22.8 -191.8 0 -202.5L0 0Z" fill="#2680C5"></path><path d="M-135 0C-126.4 -14.7 -117.8 -29.4 -112.7 -46.7C-107.6 -64 -106.1 -83.9 -95.5 -95.5C-84.9 -107 -65.2 -110.3 -47.8 -115.5C-30.4 -120.7 -15.2 -127.8 0 -135L0 0Z" fill="#3ABFF8"></path><path d="M-67.5 0C-63.2 -7.3 -58.9 -14.7 -56.4 -23.3C-53.8 -32 -53 -41.9 -47.7 -47.7C-42.4 -53.5 -32.6 -55.1 -23.9 -57.7C-15.2 -60.3 -7.6 -63.9 0 -67.5L0 0Z" fill="#ADD8E6"></path></g><g transform="translate(0, 0)"><path d="M405 0C393.8 51.1 382.5 102.2 364 150.8C345.5 199.3 319.6 245.3 284.3 284.3C248.9 323.2 204 355.2 155 374.2C106 393.1 53 399.1 0 405L0 0Z" fill="#0E1E2A"></path><path d="M337.5 0C328.1 42.6 318.8 85.2 303.3 125.6C287.9 166.1 266.4 204.4 236.9 236.9C207.4 269.4 170 296 129.2 311.8C88.4 327.6 44.2 332.6 0 337.5L0 0Z" fill="#0F3858"></path><path d="M270 0C262.5 34.1 255 68.2 242.7 100.5C230.3 132.9 213.1 163.5 189.5 189.5C165.9 215.5 136 236.8 103.3 249.4C70.7 262.1 35.3 266 0 270L0 0Z" fill="#1C4E82"></path><path d="M202.5 0C196.9 25.6 191.3 51.1 182 75.4C172.7 99.7 159.8 122.6 142.1 142.1C124.4 161.6 102 177.6 77.5 187.1C53 196.6 26.5 199.5 0 202.5L0 0Z" fill="#2680C5"></path><path d="M135 0C131.3 17 127.5 34.1 121.3 50.3C115.2 66.4 106.5 81.8 94.8 94.8C83 107.7 68 118.4 51.7 124.7C35.3 131 17.7 133 0 135L0 0Z" fill="#3ABFF8"></path><path d="M67.5 0C65.6 8.5 63.8 17 60.7 25.1C57.6 33.2 53.3 40.9 47.4 47.4C41.5 53.9 34 59.2 25.8 62.4C17.7 65.5 8.8 66.5 0 67.5L0 0Z" fill="#ADD8E6"></path></g></svg>